# xmcd
#
# Track frame offsets: 
#        150
#        18393
#        34624
#        45656
#        58724
#        76958
#        89931
#        103340
#        123788
#        141300
#        157466
#        166499
#        187636
#        205774
#
# Disc length: 2900 seconds
#
# Revision: 0
# Processed by: cddbd v1.5.2PL0 Copyright (c) Steve Scherf et al.
# Submitted via: ExactAudioCopyFreeDBPlugin 1.0
#
DISCID=c10b520e
DTITLE=古巨基 | 趙薇 - 情深深雨濛濛音樂全紀綠 2
DYEAR=2001
DGENRE=
TTITLE0=煙雨濛濛（片尾曲╱古巨基）
TTITLE1=好想好想（趙薇） 
TTITLE2=船（趙薇） 
TTITLE3=偶然（趙薇） 
TTITLE4=雨中的故事（趙薇）
TTITLE5=假正經（Cutie）
TTITLE6=夜上海（Cutie）
TTITLE7=毛毛雨（Cutie） 
TTITLE8=往事難忘（趙薇） 
TTITLE9=好想好想（小提琴） 
TTITLE10=煙雨濛濛（大提琴） 
TTITLE11=不由自主（小提琴\\&大提琴） 
TTITLE12=煙雨濛濛（人聲曲） 
TTITLE13=雨中的故事（大提琴Free）
EXTD=
EXTT0=
EXTT1=
EXTT2=
EXTT3=
EXTT4=
EXTT5=
EXTT6=
EXTT7=
EXTT8=
EXTT9=
EXTT10=
EXTT11=
EXTT12=
EXTT13=
PLAYORDER=
